# xmcd
#
# Track frame offsets:
#	150
#	12419
#	25015
#	38369
#	51055
#	61721
#	74094
#	86377
#	99189
#	111164
#	125906
#	140438
#	151445
#	173808
#	197654
#	213260
#	228217
#	241370
#	255387
#	267272
#	283128
#	297346
#	309245
#	324335
#	339284
#
# Disc length: 4761 seconds
#
# Revision: 1
# Processed by: cddbd v1.5.2PL0 Copyright (c) Steve Scherf et al.
# Submitted via: audiograbber 1.83.01
#
DISCID=57129719
DTITLE=Dolly Parton - Dolly Box Set - CD3
DYEAR=2009
DGENRE=Country
TTITLE0=Jolene
TTITLE1=Early Morning Breeze
TTITLE2=I Will Always Love You
TTITLE3=Please Don't Stop Livin' Me
TTITLE4=Love Is Like A Butterfly
TTITLE5=Sacred Memories
TTITLE6=The Bargin Store
TTITLE7=On My Mind Again
TTITLE8=Kentucky Gambler
TTITLE9=The Seeker (New Edit)
TTITLE10=We Used To
TTITLE11=All I Can Do
TTITLE12=Light Of A Clear Blue Morning
TTITLE13=You Are
TTITLE14=Applejack
TTITLE15=It's All Wrong, But It's All Right
TTITLE16=Here You Come Again
TTITLE17=Two Doors Down
TTITLE18=Me And Little Andy
TTITLE19=Heartbreaker
TTITLE20=I Really Got The Feeling
TTITLE21=Baby I'm Burnin'
TTITLE22=You're The Only One
TTITLE23=Sweet Summer Lovin'
TTITLE24=Starting Over Again
EXTD=
EXTT0=
EXTT1=
EXTT2=
EXTT3=
EXTT4=
EXTT5=
EXTT6=
EXTT7=
EXTT8=
EXTT9=
EXTT10=
EXTT11=
EXTT12=
EXTT13=
EXTT14=
EXTT15=
EXTT16=
EXTT17=
EXTT18=
EXTT19=
EXTT20=
EXTT21=
EXTT22=
EXTT23=
EXTT24=
PLAYORDER=
